<?xml version="1.0" encoding="iso-8859-1"?>
<!-- Generator: Adobe Illustrator 19.0.0, SVG Export Plug-In . SVG Version: 6.00 Build 0)  -->
<svg version="1.1" id="Layer_1" xmlns="http://www.w3.org/2000/svg" xmlns:xlink="http://www.w3.org/1999/xlink" x="0px" y="0px"
	 viewBox="0 0 512 512" style="enable-background:new 0 0 512 512;" xml:space="preserve">
<g>
	<g>
		<path d="M386.844,187.733v-17.067H125.156v17.067c0,42.11,20.001,79.632,50.997,103.581l-11.976,119.761
			c-22.37,5.481-39.021,25.69-39.021,49.724c0,28.232,22.968,51.2,51.2,51.2c28.232,0,51.2-22.968,51.2-51.2
			c0-20.445-12.049-38.121-29.416-46.321l2.765-27.634h110.192L323.612,512h34.303l-22.068-220.686
			C366.842,267.365,386.844,229.844,386.844,187.733z M176.356,477.867c-9.411,0-17.067-7.656-17.067-17.067
			c0-9.411,7.656-17.067,17.067-17.067c9.411,0,17.067,7.656,17.067,17.067C193.422,470.211,185.766,477.867,176.356,477.867z
			 M204.318,352.711l4.302-43.015c14.698,5.73,30.678,8.881,47.38,8.881s32.683-3.152,47.382-8.881l4.301,43.015H204.318z
			 M256,284.444c-47.503,0-87.119-34.43-95.204-79.644h190.407C343.12,250.014,303.503,284.444,256,284.444z"/>
	</g>
</g>
<g>
	<g>
		<path d="M314.786,92.919c0,11.502-9.358,20.859-20.86,20.859c-11.501,0-20.859-9.358-20.859-20.859V54.992
			C273.067,24.669,248.397,0,218.074,0c-30.323,0-54.992,24.669-54.992,54.992h34.133c-0.001-11.501,9.357-20.859,20.859-20.859
			c11.501,0,20.859,9.358,20.859,20.859v37.926c0,30.324,24.669,54.993,54.992,54.993c30.323,0,54.993-24.669,54.993-54.992H314.786
			z"/>
	</g>
</g>
<g>
</g>
<g>
</g>
<g>
</g>
<g>
</g>
<g>
</g>
<g>
</g>
<g>
</g>
<g>
</g>
<g>
</g>
<g>
</g>
<g>
</g>
<g>
</g>
<g>
</g>
<g>
</g>
<g>
</g>
</svg>
