<?xml version="1.0" encoding="iso-8859-1"?>
<!-- Generator: Adobe Illustrator 16.0.0, SVG Export Plug-In . SVG Version: 6.00 Build 0)  -->
<!DOCTYPE svg PUBLIC "-//W3C//DTD SVG 1.1//EN" "http://www.w3.org/Graphics/SVG/1.1/DTD/svg11.dtd">
<svg version="1.1" id="Capa_1" xmlns="http://www.w3.org/2000/svg" xmlns:xlink="http://www.w3.org/1999/xlink" x="0px" y="0px"
	 width="330.001px" height="330.001px" viewBox="0 0 330.001 330.001" style="enable-background:new 0 0 330.001 330.001;"
	 xml:space="preserve">
<g>
	<path d="M161.512,82.218c3.602,0,6.951,1.097,9.732,2.967c-4.234-5.25-10.71-8.609-17.977-8.609
		c-12.751,0-23.087,10.336-23.087,23.087c0,12.749,10.336,23.084,23.087,23.084c7.267,0,13.743-3.359,17.977-8.609
		c-2.781,1.875-6.131,2.966-9.732,2.966c-9.634,0-17.447-7.81-17.447-17.447C144.065,90.018,151.872,82.218,161.512,82.218z"/>
	<path d="M320.25,109.252c-4.472,0-8.1,3.628-8.1,8.1v19.983h-59.484H77.337H17.851v-19.983c0-4.472-3.628-8.1-8.1-8.1
		c-4.472,0-8.1,3.628-8.1,8.1v19.983v140.98v23.008v20.577c0,4.472,3.628,8.1,8.1,8.1c4.472,0,8.1-3.628,8.1-8.1v-12.478h294.3
		v12.478c0,4.472,3.628,8.1,8.1,8.1c4.473,0,8.101-3.628,8.101-8.1v-20.577v-23.008v-140.98v-19.983
		C328.351,112.875,324.723,109.252,320.25,109.252z M312.15,153.536v108.58h-59.484v-108.58H312.15z M236.466,262.116h-63.365
		v-108.58h63.365V262.116z M156.9,153.536v108.58H93.537v-108.58H156.9z M77.337,153.536v108.58H17.851v-108.58H77.337z
		 M312.15,293.225h-294.3v-14.908h59.487h175.329h59.484V293.225z"/>
	<path d="M79.497,66.77c0,1.49,1.21,2.7,2.7,2.7h6.745c0.314,0,0.604-0.082,0.886-0.177c0.414,2.7,1.453,5.168,2.995,7.272
		c-0.264,0.132-0.522,0.277-0.738,0.493l-4.775,4.767c-1.052,1.052-1.052,2.766,0,3.818c0.53,0.529,1.221,0.788,1.912,0.788
		c0.693,0,1.384-0.264,1.912-0.788l4.775-4.768c0.222-0.222,0.367-0.482,0.491-0.741c2.106,1.545,4.574,2.587,7.27,2.998
		c-0.098,0.28-0.18,0.567-0.18,0.878v6.75c0,1.493,1.21,2.7,2.7,2.7s2.7-1.208,2.7-2.7v-6.75c0-0.311-0.079-0.598-0.177-0.878
		c2.694-0.416,5.163-1.453,7.267-2.998c0.129,0.264,0.277,0.525,0.493,0.741l4.772,4.768c0.53,0.529,1.221,0.788,1.912,0.788
		s1.381-0.264,1.912-0.788c1.052-1.053,1.052-2.767,0-3.818l-4.778-4.762c-0.216-0.216-0.477-0.361-0.741-0.493
		c1.55-2.104,2.586-4.577,3.003-7.272c0.279,0.095,0.567,0.177,0.878,0.177h6.75c1.493,0,2.7-1.21,2.7-2.7s-1.208-2.7-2.7-2.7h-6.75
		c-0.311,0-0.604,0.081-0.878,0.179c-0.417-2.694-1.453-5.168-3.003-7.27c0.264-0.129,0.52-0.269,0.741-0.49l4.772-4.767
		c1.052-1.055,1.052-2.766,0-3.818c-1.052-1.055-2.766-1.055-3.818,0l-4.772,4.767c-0.216,0.216-0.364,0.475-0.493,0.738
		c-2.104-1.542-4.572-2.579-7.267-2.996c0.098-0.282,0.177-0.566,0.177-0.88v-6.75c0-1.49-1.21-2.7-2.7-2.7s-2.7,1.21-2.7,2.7v6.75
		c0,0.314,0.082,0.599,0.18,0.88c-2.695,0.417-5.163,1.453-7.27,2.996c-0.129-0.264-0.274-0.522-0.491-0.738l-4.78-4.772
		c-1.052-1.055-2.763-1.055-3.818,0c-1.052,1.052-1.052,2.763,0,3.818l4.775,4.768c0.222,0.221,0.475,0.361,0.738,0.49
		c-1.542,2.106-2.586,4.575-2.995,7.27c-0.282-0.098-0.572-0.18-0.886-0.18h-6.745C80.707,64.069,79.497,65.28,79.497,66.77z"/>
	<path d="M82.012,5.4c0,2.985,2.416,5.4,5.4,5.4h13.376v18.705c0,2.984,2.416,5.4,5.4,5.4c2.987,0,5.4-2.416,5.4-5.4V10.8h30.37
		v57.37c0,2.984,2.415,5.399,5.4,5.399c2.987,0,5.399-2.415,5.399-5.399V10.8h35.62v18.705c0,2.984,2.409,5.4,5.399,5.4
		c2.985,0,5.4-2.416,5.4-5.4V10.8h8.126c2.985,0,5.4-2.415,5.4-5.4c0-2.987-2.415-5.4-5.4-5.4h-13.526h-46.419h-41.17H87.412
		C84.428,0,82.012,2.413,82.012,5.4z"/>
	<path d="M210.674,53.599c-5.764,0-10.447,0-10.447,0L197,43.664c-1.783-5.487-4.673-5.487-6.455,0s-3.228,9.935-3.228,9.935
		h-10.441c-5.769,0-6.665,2.75-1.993,6.141c4.662,3.391,8.448,6.138,8.448,6.138l-3.228,9.938c-1.782,5.484,0.559,7.188,5.221,3.794
		c4.667-3.391,8.453-6.138,8.453-6.138l8.453,6.138c4.662,3.394,7.004,1.69,5.221-3.794c-1.782-5.487-3.227-9.938-3.227-9.938
		l8.447-6.138C217.334,56.35,216.438,53.599,210.674,53.599z"/>
</g>
<g>
</g>
<g>
</g>
<g>
</g>
<g>
</g>
<g>
</g>
<g>
</g>
<g>
</g>
<g>
</g>
<g>
</g>
<g>
</g>
<g>
</g>
<g>
</g>
<g>
</g>
<g>
</g>
<g>
</g>
</svg>
