<?xml version="1.0" encoding="iso-8859-1"?>
<!-- Generator: Adobe Illustrator 19.0.0, SVG Export Plug-In . SVG Version: 6.00 Build 0)  -->
<svg version="1.1" id="Layer_1" xmlns="http://www.w3.org/2000/svg" xmlns:xlink="http://www.w3.org/1999/xlink" x="0px" y="0px"
	 viewBox="0 0 512 512" style="enable-background:new 0 0 512 512;" xml:space="preserve">
<g>
	<g>
		<path d="M339.478,100.174V50.087C339.478,22.469,317.009,0,289.391,0h-66.783c-27.618,0-50.087,22.469-50.087,50.087v50.087
			c-36.824,0-66.783,29.959-66.783,66.783v294.956c0,27.618,22.469,50.087,50.087,50.087h200.348
			c27.618,0,50.087-22.469,50.087-50.087V166.957C406.261,130.133,376.302,100.174,339.478,100.174z M205.913,50.087
			c0-9.206,7.49-16.696,16.696-16.696h66.783c9.206,0,16.696,7.49,16.696,16.696v50.087H205.913V50.087z M372.87,461.913
			c0,9.206-7.49,16.696-16.696,16.696H155.826c-9.206,0-16.696-7.49-16.696-16.696v-16.696H372.87V461.913z M372.87,411.826H139.13
			V200.348H372.87V411.826z M139.13,166.957c0-18.412,14.979-33.391,33.391-33.391h16.696h133.565h16.696
			c18.412,0,33.391,14.979,33.391,33.391H139.13z"/>
	</g>
</g>
<g>
	<g>
		<path d="M301.31,283.481l-32.332-39.952c-3.17-3.918-7.939-6.193-12.978-6.193s-9.808,2.275-12.978,6.193l-32.333,39.953
			c-18.808,23.248-17.047,56.73,4.098,77.883c11.007,11.008,25.643,17.07,41.213,17.07s30.206-6.062,41.215-17.072
			C318.358,340.212,320.119,306.73,301.31,283.481z M273.602,337.754c-4.7,4.7-10.951,7.289-17.602,7.289
			s-12.901-2.589-17.601-7.287c-9.033-9.037-9.786-23.341-1.753-33.27L256,280.573l19.351,23.913
			C283.386,314.416,282.633,328.72,273.602,337.754z"/>
	</g>
</g>
<g>
</g>
<g>
</g>
<g>
</g>
<g>
</g>
<g>
</g>
<g>
</g>
<g>
</g>
<g>
</g>
<g>
</g>
<g>
</g>
<g>
</g>
<g>
</g>
<g>
</g>
<g>
</g>
<g>
</g>
</svg>
