<?xml version="1.0" encoding="iso-8859-1"?>
<!-- Generator: Adobe Illustrator 19.0.0, SVG Export Plug-In . SVG Version: 6.00 Build 0)  -->
<svg version="1.1" id="Layer_1" xmlns="http://www.w3.org/2000/svg" xmlns:xlink="http://www.w3.org/1999/xlink" x="0px" y="0px"
	 viewBox="0 0 299.609 299.609" style="enable-background:new 0 0 299.609 299.609;" xml:space="preserve">
<g>
	<g>
		<path d="M222.281,288.688l-18.746-155.013h4.118c5.385,0,9.75-4.365,9.75-9.75c0-5.385-4.365-9.75-9.75-9.75h-16.891v-31.85
			c0-13.916-11.321-25.238-25.238-25.238h-63.819V9.75c0-5.385-4.365-9.75-9.75-9.75s-9.75,4.365-9.75,9.75v114.174
			c0,5.385,4.365,9.75,9.75,9.75h4.118L77.328,288.688c-0.647,5.346,3.163,10.204,8.509,10.85c0.398,0.048,0.792,0.071,1.183,0.071
			c4.861,0,9.069-3.632,9.667-8.581l1.264-10.45h103.706l1.264,10.45c0.599,4.948,4.805,8.581,9.667,8.581
			c0.391,0,0.785-0.023,1.183-0.071C219.118,298.891,222.928,294.034,222.281,288.688z M159.555,76.587h5.97
			c3.164,0.001,5.738,2.574,5.738,5.738v31.85h-11.708V76.587z M128.347,76.587h11.708v37.588h-11.708V76.587z M115.718,133.674
			h68.175l4.362,36.065h-76.898L115.718,133.674z M101.706,76.588h7.141v37.588h-7.141V76.588z M100.31,261.08l8.688-71.839h81.614
			l8.688,71.839H100.31z"/>
	</g>
</g>
<g>
</g>
<g>
</g>
<g>
</g>
<g>
</g>
<g>
</g>
<g>
</g>
<g>
</g>
<g>
</g>
<g>
</g>
<g>
</g>
<g>
</g>
<g>
</g>
<g>
</g>
<g>
</g>
<g>
</g>
</svg>
