<?xml version="1.0" encoding="iso-8859-1"?>
<!-- Generator: Adobe Illustrator 19.0.0, SVG Export Plug-In . SVG Version: 6.00 Build 0)  -->
<svg version="1.1" id="Layer_1" xmlns="http://www.w3.org/2000/svg" xmlns:xlink="http://www.w3.org/1999/xlink" x="0px" y="0px"
	 viewBox="0 0 511.516 511.516" style="enable-background:new 0 0 511.516 511.516;" xml:space="preserve">
<g transform="translate(1 1)">
	<g>
		<path d="M365.724,237.45h-26.167c5.567-6.891,9.101-15.589,9.101-25.6c0-24.747-2.56-44.373-27.307-64
			c11.947-12.8,18.773-29.013,18.773-46.933c0-21.333-5.973-41.813-17.92-58.88c-17.92-25.6-38.4-40.107-60.587-42.667
			c-31.573-3.413-54.613,17.92-55.467,18.773c-2.56,1.707-3.413,5.973-1.707,9.387c0.853,2.56,4.267,5.12,7.68,5.12
			c18.773,0,34.133,15.36,34.133,34.133c0,17.92-13.653,30.72-35.84,34.133c-45.227,6.827-74.24,35.84-75.093,74.24
			c-0.853,20.48,6.827,39.253,21.333,54.613c2.648,2.795,5.485,5.346,8.457,7.68h-21.257c-5.12,0-8.533,3.413-8.533,8.533v102.4
			c0,5.12,3.413,8.533,8.533,8.533h8.533v42.667v51.2v51.2c0,5.12,3.413,8.533,8.533,8.533H280.39h68.267
			c5.12,0,8.533-3.413,8.533-8.533v-51.2v-51.2v-42.667h8.533c5.12,0,8.533-3.413,8.533-8.533v-102.4
			C374.257,240.863,370.844,237.45,365.724,237.45z M169.457,218.676c-11.947-11.947-17.92-27.307-17.067-42.667
			c1.707-29.867,24.747-52.053,61.44-58.027c30.72-5.12,49.493-24.747,49.493-51.2c0-20.48-11.947-37.547-29.013-46.08
			c6.827-3.413,16.213-5.12,25.6-3.413c17.92,1.707,34.133,13.653,48.64,34.987c9.387,13.653,14.507,30.72,14.507,49.493
			c0,16.213-7.68,30.72-20.48,40.107c-0.689,0.46-1.246,0.985-1.705,1.552c-8.814,5.144-18.912,8.688-29.015,8.688
			c-28.16,0.853-51.2,23.893-51.2,51.2c0,5.12,3.413,8.533,8.533,8.533c5.12,0,8.533-3.413,9.387-8.533
			c0-17.92,15.36-33.28,34.133-34.133c12.403,0,24.8-3.752,35.603-10.171c21.781,16.379,23.277,30.51,23.277,52.837
			c0,15.36-14.507,25.6-27.307,25.6h-89.6C197.617,237.45,181.404,230.623,169.457,218.676z M340.124,442.25H280.39h-42.667v-34.133
			h42.667h59.733V442.25z M169.457,442.25v-34.133h51.2v34.133H169.457z M271.857,391.05H229.19h-59.733v-34.133h102.4V391.05z
			 M169.457,459.316h59.733h42.667v34.133h-102.4V459.316z M340.124,493.45h-51.2v-34.133h51.2V493.45z M340.124,391.05h-51.2
			v-34.133h51.2V391.05z M348.657,339.85H280.39H160.924h-8.533v-17.067h42.667c5.12,0,8.533-3.413,8.533-8.533
			s-3.413-8.533-8.533-8.533H152.39V288.65h25.6c5.12,0,8.533-3.413,8.533-8.533s-3.413-8.533-8.533-8.533h-25.6v-17.067h62.293
			h89.6h52.907v17.067h-42.667c-5.12,0-8.533,3.413-8.533,8.533s3.413,8.533,8.533,8.533h42.667v17.067h-25.6
			c-5.12,0-8.533,3.413-8.533,8.533s3.413,8.533,8.533,8.533h25.6v17.067H348.657z"/>
	</g>
</g>
<g>
</g>
<g>
</g>
<g>
</g>
<g>
</g>
<g>
</g>
<g>
</g>
<g>
</g>
<g>
</g>
<g>
</g>
<g>
</g>
<g>
</g>
<g>
</g>
<g>
</g>
<g>
</g>
<g>
</g>
</svg>
