<?xml version="1.0" encoding="iso-8859-1"?>
<!-- Generator: Adobe Illustrator 19.0.0, SVG Export Plug-In . SVG Version: 6.00 Build 0)  -->
<svg version="1.1" id="Layer_1" xmlns="http://www.w3.org/2000/svg" xmlns:xlink="http://www.w3.org/1999/xlink" x="0px" y="0px"
	 viewBox="0 0 512 512" style="enable-background:new 0 0 512 512;" xml:space="preserve">
<g>
	<g>
		<path d="M361.739,211.478c-27.618,0-50.087,22.469-50.087,50.087c0,27.618,22.469,50.087,50.087,50.087
			s50.087-22.469,50.087-50.087C411.826,233.947,389.357,211.478,361.739,211.478z M361.739,278.261
			c-9.206,0-16.696-7.49-16.696-16.696c0-9.206,7.49-16.696,16.696-16.696s16.696,7.49,16.696,16.696
			C378.435,270.771,370.945,278.261,361.739,278.261z"/>
	</g>
</g>
<g>
	<g>
		<path d="M495.304,211.478h-18.375c-7.756-38.057-41.484-66.783-81.799-66.783h-50.087V97.313
			c19.435-6.891,33.391-25.46,33.391-47.226C378.435,22.469,355.966,0,328.348,0H150.261c-27.618,0-50.087,22.469-50.087,50.087
			c0,21.767,13.956,40.336,33.391,47.226v47.382H83.478C37.448,144.696,0,182.144,0,228.174v200.348
			c0,9.22,7.475,16.696,16.696,16.696h16.696v50.087c0,9.22,7.475,16.696,16.696,16.696h66.783c9.22,0,16.696-7.475,16.696-16.696
			v-50.087h211.478v50.087c0,9.22,7.475,16.696,16.696,16.696h66.783c9.22,0,16.696-7.475,16.696-16.696v-50.087h16.696
			c9.22,0,16.696-7.475,16.696-16.696V244.87h16.696c9.22,0,16.696-7.475,16.696-16.696
			C512,218.953,504.525,211.478,495.304,211.478z M150.261,33.391h178.087c9.206,0,16.696,7.49,16.696,16.696
			s-7.49,16.696-16.696,16.696c-9.22,0-16.696,7.475-16.696,16.696v61.217H166.957V83.478c0-9.22-7.475-16.696-16.696-16.696
			c-9.206,0-16.696-7.49-16.696-16.696S141.055,33.391,150.261,33.391z M100.174,478.609H66.783v-33.391h33.391V478.609z
			 M411.826,478.609h-33.391v-33.391h33.391V478.609z M445.217,411.826h-16.696h-66.783H116.87H50.087H33.391V228.174
			c0-27.618,22.469-50.087,50.087-50.087h66.783h178.087h66.783c27.618,0,50.087,22.469,50.087,50.087V411.826z"/>
	</g>
</g>
<g>
	<g>
		<path d="M395.13,345.043H83.478c-9.22,0-16.696,7.475-16.696,16.696s7.475,16.696,16.696,16.696H395.13
			c9.22,0,16.696-7.475,16.696-16.696S404.351,345.043,395.13,345.043z"/>
	</g>
</g>
<g>
</g>
<g>
</g>
<g>
</g>
<g>
</g>
<g>
</g>
<g>
</g>
<g>
</g>
<g>
</g>
<g>
</g>
<g>
</g>
<g>
</g>
<g>
</g>
<g>
</g>
<g>
</g>
<g>
</g>
</svg>
