<?xml version="1.0" encoding="iso-8859-1"?>
<!-- Generator: Adobe Illustrator 19.0.0, SVG Export Plug-In . SVG Version: 6.00 Build 0)  -->
<svg version="1.1" id="Layer_1" xmlns="http://www.w3.org/2000/svg" xmlns:xlink="http://www.w3.org/1999/xlink" x="0px" y="0px"
	 viewBox="0 0 512 512" style="enable-background:new 0 0 512 512;" xml:space="preserve">
<g>
	<g>
		<path d="M427.008,0H99.872C75.888,0,48,19.44,48,44.496V496c0,8.848,7.168,16,16,16h384c8.832,0,16-7.152,16-16V44.496
			C464,11.68,444.896,0,427.008,0z M432,480H80V44.496C80,40.272,90.72,32,99.872,32h327.136c1.36,0,4.992,0,4.992,12.496V480z"/>
	</g>
</g>
<g>
	<g>
		<path d="M448,96H64c-8.832,0-16,7.152-16,16s7.168,16,16,16h384c8.832,0,16-7.152,16-16S456.832,96,448,96z"/>
	</g>
</g>
<g>
	<g>
		<path d="M263.28,160.336c-79.664,0-144.48,64.816-144.48,144.48s64.816,144.496,144.48,144.496
			c79.68,0,144.48-64.832,144.48-144.496S342.944,160.336,263.28,160.336z M263.28,417.312c-62.016,0-112.48-50.464-112.48-112.496
			s50.464-112.48,112.48-112.48c62.032,0,112.48,50.448,112.48,112.48S325.296,417.312,263.28,417.312z"/>
	</g>
</g>
<g>
	<g>
		<path d="M336,192c-8.832,0-16,7.152-16,16v192c0,8.848,7.168,16,16,16c8.832,0,16-7.152,16-16V208
			C352,199.152,344.832,192,336,192z"/>
	</g>
</g>
<g>
	<g>
		<path d="M192,0c-8.832,0-16,7.152-16,16v96c0,8.848,7.168,16,16,16c8.832,0,16-7.152,16-16V16C208,7.152,200.832,0,192,0z"/>
	</g>
</g>
<g>
	<g>
		<path d="M391.168,48.512c-8.832,0-16.72,7.536-16.72,16.368s7.888,16.368,16.72,16.368c8.832,0,16.72-7.536,16.72-16.368
			C407.888,56.048,400,48.512,391.168,48.512z"/>
	</g>
</g>
<g>
	<g>
		<path d="M343.168,48.512c-8.832,0-16.72,7.536-16.72,16.368s7.888,16.368,16.72,16.368c8.832,0,16.72-7.536,16.72-16.368
			C359.888,56.048,352,48.512,343.168,48.512z"/>
	</g>
</g>
<g>
	<g>
		<path d="M288,48h-48c-8.832,0-16,7.152-16,16s7.168,16,16,16h48c8.832,0,16-7.152,16-16S296.832,48,288,48z"/>
	</g>
</g>
<g>
</g>
<g>
</g>
<g>
</g>
<g>
</g>
<g>
</g>
<g>
</g>
<g>
</g>
<g>
</g>
<g>
</g>
<g>
</g>
<g>
</g>
<g>
</g>
<g>
</g>
<g>
</g>
<g>
</g>
</svg>
