<?xml version="1.0" encoding="utf-8"?>
<!-- Generator: Adobe Illustrator 23.1.1, SVG Export Plug-In . SVG Version: 6.00 Build 0)  -->
<svg version="1.1" id="Layer_1" xmlns="http://www.w3.org/2000/svg" xmlns:xlink="http://www.w3.org/1999/xlink" x="0px" y="0px"
	 viewBox="0 0 512 512" style="enable-background:new 0 0 512 512;" xml:space="preserve">
<path d="M501.8,124.9c-5.6,0-10.2,4.6-10.2,10.2v61.2H175.4v-11.4c0-24.6-20-44.7-44.7-44.7H72.2c-24.6,0-44.7,20-44.7,44.7v11.4
	h-7.1v-61.2c0-5.6-4.6-10.2-10.2-10.2S0,129.5,0,135.1v241.7c0,5.6,4.6,10.2,10.2,10.2c5.6,0,10.2-4.6,10.2-10.2v-33.3L88,292.2
	h330.6l73,54.3v30.4c0,5.6,4.6,10.2,10.2,10.2s10.2-4.6,10.2-10.2V135.1C512,129.5,507.4,124.9,501.8,124.9z M47.9,184.9L47.9,184.9
	c0-13.4,10.9-24.3,24.3-24.3h58.5c13.4,0,24.3,10.9,24.3,24.3v11.4H47.9V184.9z M50.9,314.5c-2.2,0-4-1.8-4-4s1.8-4,4-4s4,1.8,4,4
	S53.1,314.5,50.9,314.5z M20.4,324.7v-32.5h42.8L20.4,324.7z M20.4,271.8v-55.1h156.3l-55.1,55.1H20.4z M462.8,320.2
	c-2.7,0-4.9-2.2-4.9-4.9c0-2.7,2.2-4.9,4.9-4.9c2.7,0,4.9,2.2,4.9,4.9C467.7,318.1,465.5,320.2,462.8,320.2z M491.6,327.8
	l-47.9-35.6h47.9V327.8z M491.6,271.8H150.4l55.1-55.1h286.1V271.8z"/>
</svg>
