<?xml version="1.0" encoding="iso-8859-1"?>
<!-- Generator: Adobe Illustrator 19.0.0, SVG Export Plug-In . SVG Version: 6.00 Build 0)  -->
<svg version="1.1" id="Layer_1" xmlns="http://www.w3.org/2000/svg" xmlns:xlink="http://www.w3.org/1999/xlink" x="0px" y="0px"
	 viewBox="0 0 512 512" style="enable-background:new 0 0 512 512;" xml:space="preserve">
<g>
	<g>
		<path style="fill:#010101;" d="M512,413.622V282.089c0-3.38-0.783-6.586-2.174-9.446v-70.995c0-46.549-28.705-85.918-66.31-96.264
			V22.284c0-11.958-9.783-21.741-21.741-21.741H310.896H201.104h-1.087H90.225c-11.958,0-21.741,9.783-21.741,21.741v83.543
			C29.144,115.089,0,155.164,0,202.735v79.355v130.446v77.18c0,11.958,9.783,21.741,21.741,21.741
			c10.87,0,20.654-9.783,20.654-19.567v-57.614h425.036v55.439c0,11.958,9.783,21.741,21.741,21.741s21.741-9.783,20.654-21.741
			v-68.63C510.984,418.737,511.741,416.212,512,413.622z M467.431,202.735v57.614h-23.915V152.232
			C457.669,161.482,467.431,180.475,467.431,202.735z M398.947,260.348h-66.31V42.938h66.31V260.348z M289.155,260.348h-66.31
			V42.938h66.31V260.348z M111.966,42.938h66.31v217.41h-66.31V42.938z M68.484,151.992v108.357H42.395v-56.527
			C42.395,180.439,53.165,160.656,68.484,151.992z M42.395,391.881V303.83h425.036v88.051H42.395z"/>
	</g>
</g>
<g>
</g>
<g>
</g>
<g>
</g>
<g>
</g>
<g>
</g>
<g>
</g>
<g>
</g>
<g>
</g>
<g>
</g>
<g>
</g>
<g>
</g>
<g>
</g>
<g>
</g>
<g>
</g>
<g>
</g>
</svg>
