<?xml version="1.0" encoding="utf-8"?>
<!-- Svg Vector Icons : http://www.onlinewebfonts.com/icon -->
<!DOCTYPE svg PUBLIC "-//W3C//DTD SVG 1.1//EN" "http://www.w3.org/Graphics/SVG/1.1/DTD/svg11.dtd">
<svg version="1.1" xmlns="http://www.w3.org/2000/svg" xmlns:xlink="http://www.w3.org/1999/xlink" x="0px" y="0px" viewBox="0 0 1000 1000" enable-background="new 0 0 1000 1000" xml:space="preserve">
<metadata> Svg Vector Icons : http://www.onlinewebfonts.com/icon </metadata>
<g><g transform="translate(0.000000,511.000000) scale(0.100000,-0.100000)"><path d="M4192.6,5003.1c-32.7-4.1-112.4-22.5-173.8-38.8c-126.7-36.8-1461.6-543.8-1551.5-590.8c-87.9-45-198.3-184-226.9-284.1c-14.3-53.1-22.5-167.6-18.4-271.9c8.2-157.4,16.3-194.2,63.4-265.7c32.7-49.1,89.9-100.2,143.1-126.7c85.8-40.9,122.7-42.9,703.2-42.9c611.2-2,611.2-2,537.6-40.9c-71.5-36.8-128.8-124.7-151.3-229l-10.2-57.2h-486.5c-525.4,0-588.7-12.3-693-124.7c-114.5-124.7-108.3,96.1-108.3-3636.6c0-3054,4.1-3444.4,30.7-3511.9c75.6-175.8,204.4-247.4,455.8-249.4h167.6v-92c0-118.6,32.7-186,104.3-216.7c45-18.4,73.6-18.4,118.6,0c71.5,30.7,104.3,98.1,104.3,216.7v92H5000h1798.9v-96.1c0-55.2,12.3-120.6,26.6-147.2c32.7-65.4,122.7-94,196.3-63.4c71.5,28.6,104.2,96.1,104.2,214.6v92h169.6c249.4,2,378.2,73.6,453.8,249.4c26.6,67.5,30.7,457.9,30.7,3516c0,3301.3-2,3444.4-38.8,3522.1c-45,98.1-110.4,161.5-210.5,204.4c-61.3,24.5-169.7,30.7-556,30.7h-482.4l-10.2,57.2c-22.5,104.3-79.7,192.2-151.3,229c-73.6,38.8-73.6,38.8,537.6,40.9c580.5,0,617.3,2.1,703.2,42.9c53.2,26.6,110.4,77.7,143.1,126.7c47,71.5,55.2,108.3,63.4,265.7c4.1,104.3-4.1,218.7-18.4,271.9c-28.6,100.2-139,239.2-226.9,284.1c-67.5,36.8-1386,539.7-1551.5,594.9c-100.2,32.7-204.4,36.8-919.9,40.9C4617.8,5011.3,4227.3,5009.2,4192.6,5003.1z M5858.6,4661.7c210.5-51.1,1520.9-562.1,1559.7-609.2c28.6-34.7,34.8-73.6,30.7-188.1l-6.1-145.1H5000H2557.3l-6.1,145.1c-4.1,114.5,2,153.3,30.7,188.1c36.8,45,1336.9,554,1549.5,609.2C4280.5,4698.5,5703.2,4700.6,5858.6,4661.7z M4182.4,1256.1V-542.7h-327.1h-327.1v175.8c0,96.1,69.5,897.4,153.3,1780.5c83.8,885.1,153.3,1614.9,153.3,1625.1c0,8.2,77.7,16.3,173.8,16.3h173.8V1256.1z M6165.2,3038.7c0-8.2,69.5-740,153.3-1627.2C6402.3,524.3,6471.8-277,6471.8-371v-171.7h-981.2h-981.2v1798.9V3055h827.9C5793.2,3055,6165.2,3048.9,6165.2,3038.7z M3477.1,2652.3c-6.1-42.9-71.5-707.3-143.1-1477.9C3207.3-164.6,3201.2-250.4,3201.2-798.3c0-314.8,6.1-592.8,12.3-619.4c30.7-108.4-4.1-106.3,1784.6-106.3c1169.3,0,1670.1,6.1,1704.8,22.5c90,40.9,96.1,87.9,96.1,699.1c0,549.9-6.1,641.9-132.9,1976.7c-73.6,770.7-137,1435-143.1,1477.9l-10.2,75.6l464-4.1l466.1-6.1v-3424v-3424H5000H2557.3l-6.1,3403.5c-2,1872.5,0,3415.8,6.1,3430.1c6.1,18.4,120.6,24.5,470.2,24.5h459.9L3477.1,2652.3z M6471.8-1033.3v-163.5H5000H3528.2v163.5v163.5H5000h1471.8V-1033.3z"/><path d="M5251.5,741c-57.2-26.6-94-118.6-75.6-188.1c24.5-102.2,85.8-114.5,558-114.5c466.1,0,515.1,10.2,556,104.2c30.7,75.6-8.2,177.8-77.7,204.4C6142.7,773.7,5306.7,767.6,5251.5,741z"/></g></g>
</svg>