<?xml version="1.0" encoding="iso-8859-1"?>
<!-- Generator: Adobe Illustrator 18.0.0, SVG Export Plug-In . SVG Version: 6.00 Build 0)  -->
<!DOCTYPE svg PUBLIC "-//W3C//DTD SVG 1.1//EN" "http://www.w3.org/Graphics/SVG/1.1/DTD/svg11.dtd">
<svg version="1.1" id="Capa_1" xmlns="http://www.w3.org/2000/svg" xmlns:xlink="http://www.w3.org/1999/xlink" x="0px" y="0px"
	 viewBox="0 0 224.336 224.336" style="enable-background:new 0 0 224.336 224.336;" xml:space="preserve">
<g>
	<path d="M44.393,0c-4.143,0-7.5,3.358-7.5,7.5v69.779v139.557c0,4.143,3.357,7.5,7.5,7.5h135.551c4.143,0,7.5-3.357,7.5-7.5V77.279
		V7.5c0-4.142-3.357-7.5-7.5-7.5H44.393z M51.893,15h120.551v54.779H51.893V15z M172.443,209.336H51.893V84.779h120.551V209.336z"/>
	<path d="M78.281,21.807c-4.143,0-7.5,3.357-7.5,7.5v26.166c0,4.143,3.357,7.5,7.5,7.5c4.143,0,7.5-3.357,7.5-7.5V29.307
		C85.781,25.164,82.424,21.807,78.281,21.807z"/>
	<path d="M78.281,158.918c4.143,0,7.5-3.357,7.5-7.5V99.084c0-4.143-3.357-7.5-7.5-7.5c-4.143,0-7.5,3.357-7.5,7.5v52.334
		C70.781,155.561,74.139,158.918,78.281,158.918z"/>
</g>
<g>
</g>
<g>
</g>
<g>
</g>
<g>
</g>
<g>
</g>
<g>
</g>
<g>
</g>
<g>
</g>
<g>
</g>
<g>
</g>
<g>
</g>
<g>
</g>
<g>
</g>
<g>
</g>
<g>
</g>
</svg>
