<?xml version="1.0" encoding="iso-8859-1"?>
<!-- Generator: Adobe Illustrator 19.0.0, SVG Export Plug-In . SVG Version: 6.00 Build 0)  -->
<svg version="1.1" id="Layer_1" xmlns="http://www.w3.org/2000/svg" xmlns:xlink="http://www.w3.org/1999/xlink" x="0px" y="0px"
	 viewBox="0 0 512.002 512.002" style="enable-background:new 0 0 512.002 512.002;" xml:space="preserve">
<g>
	<g>
		<path d="M457.107,72.952c5.018,2.389,10.564,3.849,16.486,3.849c21.214,0,38.409-17.195,38.409-38.4
			c0-21.205-17.195-38.4-38.409-38.4s-38.409,17.195-38.409,38.4c0,5.922,1.459,11.469,3.849,16.478
			c-0.026,0.034-0.068,0.034-0.102,0.068l-90.325,90.317C269.561,69.573,180.636,25.601,115.757,25.601
			c-27.204,0-50.167,7.672-66.364,23.868c-2.082,2.082-5.837,6.477-5.837,6.477c-0.085,0.085-0.188,0.137-0.273,0.213
			C-26.255,125.68-9.683,257.418,76.341,366.013L51.697,481.042c-1.621,7.561,0.265,15.445,5.129,21.453
			c4.855,6.016,12.169,9.506,19.9,9.506h76.817c7.731,0,15.053-3.49,19.908-9.506c4.864-6.016,6.741-13.901,5.129-21.453
			l-5.53-25.822c55.518,36.975,114.961,56.781,168.021,56.781c45.047,0,85.453-14.054,114.765-43.358
			c0.811-0.811,1.476-1.732,2.236-2.586c1.442-1.237,3.115-2.176,4.463-3.524c54.835-54.827,11.776-187.068-95.718-299.264
			l90.223-90.214C457.073,73.021,457.081,72.978,457.107,72.952z M473.593,25.601c7.057,0,12.8,5.743,12.8,12.8
			s-5.743,12.8-12.8,12.8s-12.8-5.743-12.8-12.8S466.536,25.601,473.593,25.601z M76.725,486.401l20.565-95.966
			c3.866,4.19,7.603,8.431,11.691,12.518c10.633,10.633,21.717,20.284,32.973,29.423l11.588,54.025H76.725z M341.071,486.401
			c-70.383,0-150.374-37.965-213.982-101.555c-51.499-51.482-86.17-113.161-97.63-173.653c-4.642-24.508-4.941-47.334-1.553-68.045
			C38.3,207.173,83.125,287.216,153.935,358.008c70.767,70.75,150.758,115.55,214.776,125.978
			C359.895,485.488,350.73,486.401,341.071,486.401z M449.913,338.126c16.213,47.855,14.216,86.605-5.495,106.3
			c-10.863,10.863-27.102,16.375-48.265,16.375c-62.694,0-150.665-47.454-224.12-120.9
			c-52.446-52.437-91.52-111.403-110.029-166.025c-16.213-47.855-14.216-86.605,5.495-106.3
			c10.863-10.863,27.102-16.375,48.265-16.375c60.083,0,143.258,43.87,214.75,112.154L195.697,298.147
			c-5.001,5.001-5.001,13.099,0,18.099c2.5,2.5,5.777,3.746,9.054,3.746s6.554-1.246,9.054-3.746L348.717,181.36
			C396.631,231.442,432.48,286.67,449.913,338.126z"/>
	</g>
</g>
<g>
</g>
<g>
</g>
<g>
</g>
<g>
</g>
<g>
</g>
<g>
</g>
<g>
</g>
<g>
</g>
<g>
</g>
<g>
</g>
<g>
</g>
<g>
</g>
<g>
</g>
<g>
</g>
<g>
</g>
</svg>
